<svg width="878" height="878" viewBox="0 0 878 878" fill="none" xmlns="http://www.w3.org/2000/svg">
<rect width="878" height="878" rx="439" fill="white"/>
<path d="M368.5 263L326.5 502C319.833 539 304.333 567.5 280 587.5C255.667 607.5 225.833 617.5 190.5 617.5C158.5 617.5 133.167 609.5 114.5 593.5C96.1667 577.5 87 554.5 87 524.5C87 514.167 87.8333 504.833 89.5 496.5H174.5C173.5 501.833 173 506.667 173 511C173 521 175.5 528.5 180.5 533.5C185.5 538.5 192.5 541 201.5 541C211.833 541 220.333 537.833 227 531.5C234 524.833 238.667 515 241 502L283 263H368.5Z" fill="#4CA6E0"/>
<path d="M800.785 376C797.452 396.333 789.618 415 777.285 432C764.952 448.667 748.118 462.167 726.785 472.5C705.785 482.833 680.952 488 652.285 488H599.285L576.785 614H491.285L553.285 263H691.785C728.452 263 756.118 271.167 774.785 287.5C793.452 303.5 802.785 325.333 802.785 353C802.785 361.333 802.118 369 800.785 376ZM657.285 421C689.285 421 708.118 406 713.785 376C714.452 370.667 714.785 366.833 714.785 364.5C714.785 353.833 711.285 345.667 704.285 340C697.618 334 687.285 331 673.285 331H626.785L611.285 421H657.285Z" fill="black"/>
</svg>
