<svg width="1186" height="657" viewBox="0 0 1186 657" fill="none" xmlns="http://www.w3.org/2000/svg">
<g clip-path="url(#clip0_231_427)">
<path d="M62.4583 90.1484C64.8504 90.1484 66.7896 88.4487 66.7896 86.352C66.7896 84.2554 64.8504 82.5557 62.4583 82.5557C60.0662 82.5557 58.127 84.2554 58.127 86.352C58.127 88.4487 60.0662 90.1484 62.4583 90.1484Z" fill="#4CA6E0"/>
<path d="M78.9954 90.1484C81.3875 90.1484 83.3267 88.4487 83.3267 86.352C83.3267 84.2554 81.3875 82.5557 78.9954 82.5557C76.6033 82.5557 74.6641 84.2554 74.6641 86.352C74.6641 88.4487 76.6033 90.1484 78.9954 90.1484Z" fill="#4CA6E0"/>
<path d="M94.7454 90.1484C97.1375 90.1484 99.0768 88.4487 99.0768 86.352C99.0768 84.2554 97.1375 82.5557 94.7454 82.5557C92.3533 82.5557 90.4141 84.2554 90.4141 86.352C90.4141 88.4487 92.3533 90.1484 94.7454 90.1484Z" fill="#4CA6E0"/>
<path d="M592.85 94.9805H51.8262V97.7415H592.85V94.9805Z" fill="#EA4FE7"/>
<g filter="url(#filter0_d_231_427)">
<path d="M577.85 107.404H66.8262C58.5419 107.404 51.8262 114.12 51.8262 122.404V396.114C51.8262 404.398 58.5419 411.114 66.8262 411.114H577.85C586.134 411.114 592.85 404.398 592.85 396.114V122.404C592.85 114.12 586.134 107.404 577.85 107.404Z" fill="white"/>
<path d="M66.8262 107.904H577.85C585.858 107.904 592.35 114.396 592.35 122.404V396.114C592.35 404.122 585.858 410.614 577.85 410.614H66.8262C58.818 410.614 52.3262 404.122 52.3262 396.114V122.404C52.3262 114.396 58.818 107.904 66.8262 107.904Z" stroke="#EA4FE7"/>
</g>
<path d="M68.8633 258.76V143.798H577.387V258.76H68.8633Z" fill="white" stroke="#EA4FE7"/>
<path d="M68.8633 393.358V278.396H577.387V393.358H68.8633Z" fill="white" stroke="#EA4FE7"/>
<path d="M516.102 168.917H240.23V179.698H516.102V168.917Z" fill="#EA4FE7"/>
<path d="M338.591 195.869H240.23V206.65H338.591V195.869Z" fill="#EA4FE7"/>
<path d="M436.184 222.82H240.23V233.601H436.184V222.82Z" fill="#EA4FE7"/>
<path d="M219.124 335.529L219.165 335.529L219.067 335.529L219.121 335.529H219.124Z" fill="#EA4FE7" stroke="#4CA6E0"/>
<path d="M171.051 353.71V316.978H175.703V353.71H171.051Z" fill="white" stroke="#4CA6E0"/>
<path d="M152.359 337.322V333.366H194.392V337.322H152.359Z" fill="white" stroke="#4CA6E0"/>
<path d="M509.186 303.676H233.314V314.457H509.186V303.676Z" fill="#EA4FE7"/>
<path d="M331.675 330.627H233.314V341.408H331.675V330.627Z" fill="#EA4FE7"/>
<path d="M429.268 357.579H233.314V368.36H429.268V357.579Z" fill="#EA4FE7"/>
<path d="M60.3129 22.5168C63.8523 22.5168 66.7215 20.001 66.7215 16.8976C66.7215 13.7941 63.8523 11.2783 60.3129 11.2783C56.7735 11.2783 53.9043 13.7941 53.9043 16.8976C53.9043 20.001 56.7735 22.5168 60.3129 22.5168Z" fill="white"/>
<path d="M84.6371 22.5168C88.1765 22.5168 91.0457 20.001 91.0457 16.8976C91.0457 13.7941 88.1765 11.2783 84.6371 11.2783C81.0977 11.2783 78.2285 13.7941 78.2285 16.8976C78.2285 20.001 81.0977 22.5168 84.6371 22.5168Z" fill="white"/>
<path d="M35.9223 22.5168C39.4616 22.5168 42.3309 20.001 42.3309 16.8976C42.3309 13.7941 39.4616 11.2783 35.9223 11.2783C32.3829 11.2783 29.5137 13.7941 29.5137 16.8976C29.5137 20.001 32.3829 22.5168 35.9223 22.5168Z" fill="white"/>
<path d="M201.328 233.754C197.26 231.84 193.014 230.245 188.637 228.986L188.079 223.473L165.444 221.296L162.568 228.342L154.445 231.063C154.154 231.162 153.878 231.29 153.621 231.447H153.612C153.158 231.72 152.772 232.073 152.477 232.485C152.182 232.896 151.984 233.357 151.894 233.839C151.808 234.318 151.828 234.808 151.955 235.28L152.384 236.852C153.002 237.181 153.638 237.496 154.273 237.795L154.677 237.979C155.604 238.408 156.549 238.814 157.519 239.19C157.716 239.267 157.931 239.343 158.129 239.42C158.146 239.428 158.154 239.428 158.171 239.435C158.627 239.604 159.082 239.765 159.545 239.918C161.068 240.438 162.622 240.883 164.199 241.252C168.224 242.21 172.373 242.695 176.538 242.694C178.058 242.694 179.561 242.632 181.046 242.502C184.44 242.222 187.791 241.618 191.041 240.7C191.05 240.7 191.058 240.693 191.067 240.693C193.12 240.109 195.125 239.399 197.069 238.569C197.077 238.561 197.095 238.561 197.103 238.554C197.541 238.37 197.962 238.17 198.391 237.979L198.597 237.887C198.941 237.726 199.284 237.565 199.628 237.396C200.486 236.974 201.328 236.53 202.161 236.054C202.392 235.932 202.616 235.801 202.848 235.663C203.174 235.472 203.5 235.272 203.818 235.065C203.019 234.605 202.187 234.168 201.328 233.754Z" fill="#545454"/>
<path d="M232.261 221.875L229.894 212.503H223.71C223.648 212.504 223.586 212.508 223.524 212.516H223.509C221.287 212.68 219.147 213.329 217.283 214.402C216.019 215.11 214.895 215.994 213.955 217.019C215.791 218.239 217.699 219.371 219.665 220.453L219.751 220.491C220.31 220.793 220.885 221.095 221.458 221.384C222.491 221.925 223.553 222.441 224.614 222.931L225.289 223.233C226.838 223.938 228.416 224.604 230.037 225.221C230.367 225.347 230.726 225.472 231.056 225.598C231.085 225.611 231.099 225.611 231.128 225.623C231.888 225.9 232.648 226.164 233.423 226.416L232.261 221.875Z" fill="#EA4FE7" fill-opacity="0.5"/>
<path d="M175.859 218.534C184.775 218.534 192.003 212.045 192.003 204.039C192.003 196.034 184.775 189.544 175.859 189.544C166.943 189.544 159.715 196.034 159.715 204.039C159.715 212.045 166.943 218.534 175.859 218.534Z" fill="#FFB8B8"/>
<path d="M164.617 197.28C166.314 199.01 169.185 199.499 171.834 199.699C178.027 199.994 184.238 199.557 190.293 198.4C190.668 201.534 189.645 204.913 191.787 207.491C192.791 204.37 193.375 201.16 193.527 197.923C193.687 196.535 193.477 195.133 192.912 193.826C192.61 193.17 192.101 192.601 191.443 192.183C190.784 191.764 190.003 191.514 189.187 191.459C190.408 190.661 191.838 190.134 193.352 189.924L188.147 187.671L189.484 186.488L180.061 185.991L182.79 184.497C178.683 184.011 174.528 183.898 170.393 184.16C168.473 184.282 166.465 184.515 164.909 185.473C163.354 186.432 162.455 188.338 163.42 189.745C162.211 189.916 161.073 190.351 160.113 191.007C159.153 191.663 158.404 192.52 157.935 193.496C157.343 195.047 157.2 196.699 157.519 198.309C157.874 200.891 158.57 203.43 159.595 205.876L164.617 197.28Z" fill="#2F2E41"/>
<path d="M220.875 188.355C218.615 182.666 214.968 177.477 210.186 173.151C205.404 168.825 199.603 165.465 193.188 163.306C186.772 161.147 179.897 160.24 173.041 160.649C166.184 161.059 159.513 162.774 153.49 165.676C147.468 168.578 142.241 172.596 138.172 177.45C134.104 182.305 131.292 187.879 129.934 193.784C128.576 199.689 128.703 205.782 130.308 211.639C131.912 217.497 134.955 222.977 139.224 227.697C139.648 228.165 140.089 228.634 140.539 229.087C140.573 229.117 140.598 229.147 140.632 229.176C141.737 230.293 142.912 231.355 144.152 232.358C144.474 232.619 144.813 232.886 145.153 233.139C145.797 233.645 146.459 234.128 147.146 234.589C147.417 234.775 147.68 234.96 147.96 235.139C149.045 235.86 150.174 236.529 151.336 237.168L151.387 237.191C151.717 237.369 152.057 237.548 152.396 237.719C153.006 238.038 153.634 238.343 154.261 238.633L154.66 238.811C155.576 239.228 156.509 239.622 157.468 239.986C157.663 240.06 157.875 240.135 158.07 240.209C158.087 240.216 158.095 240.216 158.112 240.224C158.562 240.387 159.011 240.544 159.469 240.692C160.974 241.196 162.508 241.628 164.066 241.986C168.042 242.915 172.139 243.385 176.254 243.383C177.755 243.383 179.239 243.324 180.707 243.198C184.059 242.926 187.369 242.341 190.579 241.451C190.588 241.451 190.596 241.443 190.604 241.443C192.632 240.877 194.613 240.189 196.533 239.384C196.541 239.376 196.558 239.376 196.567 239.369C196.999 239.191 197.415 238.997 197.839 238.811L198.043 238.722C198.382 238.566 198.721 238.41 199.061 238.246C199.909 237.837 200.74 237.406 201.562 236.945C201.791 236.826 202.012 236.7 202.241 236.566C202.563 236.38 202.886 236.187 203.199 235.986C203.615 235.734 204.031 235.473 204.438 235.206C204.565 235.124 204.701 235.042 204.828 234.953C212.774 229.666 218.606 222.31 221.489 213.939C224.372 205.568 224.157 196.612 220.875 188.355H220.875ZM203.267 233.146C202.987 233.34 202.699 233.526 202.41 233.697C202.13 233.882 201.851 234.061 201.562 234.224C201.316 234.381 201.07 234.529 200.816 234.67L200.74 234.715C200.553 234.827 200.367 234.931 200.18 235.035C199.476 235.421 198.763 235.793 198.043 236.15C197.966 236.187 197.89 236.224 197.814 236.261C197.491 236.418 197.169 236.566 196.847 236.715C196.804 236.737 196.753 236.752 196.711 236.774L196.66 236.797C196.253 236.983 195.837 237.161 195.422 237.332C193.818 238.009 192.167 238.595 190.477 239.086C190.257 239.153 190.036 239.22 189.816 239.28C186.777 240.127 183.644 240.685 180.469 240.945C179.078 241.057 177.67 241.116 176.254 241.116C172.362 241.123 168.486 240.678 164.728 239.793C162.799 239.351 160.908 238.79 159.071 238.113C158.977 238.075 158.875 238.046 158.782 238.009C158.681 237.971 158.587 237.942 158.494 237.904C158.392 237.867 158.299 237.83 158.197 237.785C157.4 237.481 156.611 237.146 155.839 236.797L155.466 236.626C154.524 236.195 153.6 235.734 152.701 235.243C152.438 235.102 152.167 234.953 151.912 234.797C151.845 234.76 151.785 234.722 151.717 234.685C151.115 234.336 150.513 233.972 149.927 233.592C149.529 233.332 149.13 233.072 148.74 232.804C148.087 232.373 147.459 231.912 146.849 231.437C146.527 231.199 146.213 230.938 145.907 230.693C144.705 229.72 143.567 228.687 142.498 227.6C142.142 227.244 141.794 226.887 141.463 226.515C141.388 226.441 141.317 226.365 141.251 226.285C135.74 220.189 132.426 212.793 131.73 205.04C131.034 197.287 132.989 189.528 137.344 182.752C141.7 175.976 148.259 170.491 156.185 166.997C164.111 163.502 173.045 162.156 181.848 163.13C190.651 164.104 198.923 167.354 205.61 172.465C212.297 177.577 217.095 184.319 219.393 191.831C221.691 199.342 221.385 207.284 218.513 214.642C215.64 222.001 210.333 228.443 203.267 233.146Z" fill="#EA4FE7"/>
<path d="M904.698 397.421C901.178 388.555 895.493 380.47 888.042 373.728C880.59 366.987 871.55 361.751 861.553 358.386C851.555 355.022 840.841 353.609 830.157 354.247C819.472 354.885 809.075 357.558 799.691 362.08C790.306 366.601 782.16 372.863 775.82 380.428C769.48 387.993 765.099 396.68 762.982 405.881C760.865 415.083 761.064 424.579 763.564 433.706C766.064 442.834 770.806 451.373 777.458 458.729C778.119 459.459 778.807 460.189 779.507 460.896C779.56 460.942 779.599 460.988 779.652 461.035C781.375 462.775 783.207 464.43 785.138 465.993C785.64 466.399 786.168 466.816 786.697 467.21C787.702 467.998 788.732 468.751 789.803 469.469C791.893 470.913 794.073 472.255 796.332 473.489L796.411 473.524C797.878 474.323 799.372 475.064 800.892 475.771L801.513 476.049C802.94 476.698 804.394 477.312 805.888 477.88C806.192 477.996 806.522 478.111 806.826 478.227C806.853 478.239 806.866 478.239 806.893 478.25C809.91 479.35 813.01 480.268 816.171 480.996C822.367 482.444 828.751 483.176 835.163 483.174C837.503 483.174 839.816 483.081 842.102 482.884C847.327 482.462 852.485 481.549 857.487 480.162C857.501 480.162 857.513 480.15 857.526 480.15C860.686 479.268 863.773 478.196 866.765 476.941C866.778 476.93 866.805 476.93 866.818 476.918C867.492 476.64 868.14 476.339 868.801 476.049L869.118 475.91C869.647 475.667 870.175 475.424 870.704 475.169C872.026 474.532 873.321 473.86 874.603 473.141C874.96 472.956 875.303 472.759 875.66 472.55C876.823 471.879 877.973 471.16 879.083 470.43C879.282 470.303 879.493 470.176 879.692 470.037C892.074 461.798 901.162 450.335 905.655 437.29C910.147 424.245 909.812 410.288 904.698 397.421Z" fill="white"/>
<g filter="url(#filter1_f_231_427)">
<path d="M858.786 445.9C865.093 445.9 870.205 441.574 870.205 436.237C870.205 430.9 865.093 426.573 858.786 426.573C852.48 426.573 847.367 430.9 847.367 436.237C847.367 441.574 852.48 445.9 858.786 445.9Z" fill="#2F2E41"/>
</g>
<g filter="url(#filter2_f_231_427)">
<path d="M862.172 426.588C864.057 426.588 865.91 427.009 867.549 427.808C869.189 428.607 870.559 429.757 871.525 431.147C872.492 432.537 873.021 434.118 873.063 435.736C873.104 437.354 872.655 438.954 871.761 440.379C872.705 439.364 873.393 438.192 873.78 436.937C874.167 435.682 874.246 434.371 874.011 433.089C873.776 431.806 873.232 430.579 872.414 429.487C871.596 428.395 870.522 427.461 869.261 426.745C867.999 426.028 866.578 425.545 865.087 425.327C863.596 425.108 862.068 425.159 860.602 425.475C859.135 425.791 857.761 426.366 856.567 427.163C855.373 427.96 854.386 428.963 853.668 430.105C854.686 429.008 855.98 428.122 857.452 427.513C858.925 426.904 860.539 426.588 862.173 426.588H862.172Z" fill="#2F2E41"/>
</g>
<g filter="url(#filter3_f_231_427)">
<path d="M838.706 436.237C856.538 436.237 870.994 423.567 870.994 407.937C870.994 392.307 856.538 379.637 838.706 379.637C820.874 379.637 806.418 392.307 806.418 407.937C806.418 423.567 820.874 436.237 838.706 436.237Z" fill="#2F2E41"/>
</g>
<g filter="url(#filter4_f_231_427)">
<path d="M813.097 390.236C818.631 384.876 826.366 381.577 834.67 381.036C842.974 380.495 851.197 382.753 857.604 387.335C857.342 387.12 857.08 386.903 856.809 386.695C850.465 381.8 842.124 379.276 833.619 379.678C825.114 380.081 817.144 383.376 811.46 388.84C805.777 394.304 802.847 401.489 803.314 408.814C803.781 416.139 807.608 423.003 813.952 427.898C814.013 427.945 814.074 427.992 814.135 428.039C814.408 428.247 814.688 428.445 814.967 428.644C808.933 423.701 805.366 416.932 805.017 409.765C804.668 402.599 807.566 395.597 813.098 390.236H813.097Z" fill="#2F2E41"/>
</g>
<g filter="url(#filter5_f_231_427)">
<path d="M838.311 436.237C849.836 436.237 859.18 427.893 859.18 417.601C859.18 407.308 849.836 398.964 838.311 398.964C826.785 398.964 817.441 407.308 817.441 417.601C817.441 427.893 826.785 436.237 838.311 436.237Z" fill="#A0616A"/>
</g>
<g filter="url(#filter6_f_231_427)">
<path d="M874.929 464.948V471.082C873.664 471.799 872.385 472.47 871.081 473.107C870.559 473.361 870.038 473.605 869.516 473.848L869.202 473.986C868.55 474.276 867.911 474.577 867.246 474.854C867.233 474.866 867.206 474.866 867.194 474.878C864.241 476.131 861.194 477.202 858.075 478.083C858.062 478.083 858.049 478.095 858.036 478.095C853.099 479.48 848.008 480.392 842.852 480.814C840.595 481.011 838.312 481.104 836.003 481.104C829.675 481.105 823.373 480.374 817.258 478.928C814.139 478.2 811.079 477.284 808.101 476.185C808.075 476.174 808.061 476.174 808.035 476.162C807.735 476.046 807.409 475.931 807.109 475.815C805.635 475.248 804.2 474.634 802.791 473.986L802.178 473.709C800.678 473.003 799.204 472.262 797.756 471.464L797.678 471.429C795.448 470.196 793.297 468.856 791.234 467.413C790.177 466.696 789.16 465.943 788.168 465.156C787.646 464.763 787.125 464.346 786.629 463.941C784.723 462.38 782.916 460.726 781.215 458.988C781.44 457.783 781.772 456.595 782.207 455.435L782.219 455.424C782.297 455.226 782.389 455.033 782.493 454.845C782.565 454.679 782.648 454.517 782.741 454.359C785.076 450.482 789.303 449.522 794.547 449.313C797.508 449.198 800.782 449.325 804.24 449.29C806.066 449.279 807.957 449.221 809.849 449.07C821.784 448.11 819.619 441.86 820.154 438.493C820.689 435.229 824.002 438.053 824.224 438.238L824.237 438.25C830.991 441.054 838.464 442.216 845.891 441.617C847.17 441.478 848.448 441.398 849.726 441.363C853.092 441.328 852.361 442.184 851.201 442.89C850.637 443.219 850.049 443.513 849.44 443.77C849.44 443.77 848.905 446.663 848.357 450.991C847.835 455.134 856.784 457.079 857.527 457.229C857.543 457.238 857.561 457.242 857.579 457.241C860.847 456.489 864.288 456.569 867.507 457.472H867.52C869.359 458.072 871 459.07 872.294 460.376C873.588 461.681 874.494 463.253 874.929 464.948Z" fill="#545454"/>
</g>
<g filter="url(#filter7_f_231_427)">
<path d="M808.762 471.861C808.762 472.701 808.736 473.506 808.696 474.266C808.684 474.719 808.657 475.162 808.631 475.581C808.605 475.57 808.592 475.57 808.565 475.559C808.264 475.445 807.937 475.332 807.635 475.218C806.155 474.663 804.715 474.062 803.3 473.426L802.685 473.154C801.178 472.462 799.698 471.736 798.244 470.954C798.283 470.557 798.349 470.16 798.415 469.763C798.558 468.89 798.677 468.005 798.755 467.131C799.27 460.996 797.986 454.847 795.022 449.256V449.245C794.76 448.791 794.604 448.542 794.604 448.542C794.604 448.542 798.415 445.706 803.85 448.542C804.197 448.718 804.504 448.949 804.754 449.222C808.029 452.568 808.919 463.82 808.762 471.861Z" fill="#2F2E41"/>
</g>
<g filter="url(#filter8_f_231_427)">
<path d="M867.581 470.439C867.53 471.723 867.454 473.065 867.366 474.43V474.441C867.353 474.453 867.327 474.453 867.315 474.464C864.45 475.706 861.494 476.767 858.469 477.641C858.456 477.641 858.444 477.652 858.431 477.652L858.292 474.43L858.279 474.005L857.608 458.317C857.591 457.962 857.652 457.607 857.79 457.274C857.927 456.941 858.138 456.637 858.409 456.38C858.679 456.122 859.005 455.918 859.366 455.777C859.726 455.637 860.114 455.565 860.507 455.564H866.923C867.239 455.564 867.467 456.149 867.619 457.204V457.216C867.93 461.619 867.917 466.037 867.581 470.439Z" fill="#2F2E41"/>
</g>
<g filter="url(#filter9_f_231_427)">
<path d="M820.592 394.822V412.769H825.421L831.567 407.103L830.745 412.769H852.094L850.773 407.103L853.414 412.769H856.818V394.822H820.592Z" fill="#2F2E41"/>
</g>
<g filter="url(#filter10_f_231_427)">
<path d="M817.047 416.91C817.699 416.91 818.228 415.674 818.228 414.149C818.228 412.624 817.699 411.388 817.047 411.388C816.394 411.388 815.865 412.624 815.865 414.149C815.865 415.674 816.394 416.91 817.047 416.91Z" fill="#A0616A"/>
</g>
<g filter="url(#filter11_f_231_427)">
<path d="M859.181 416.91C860.05 416.91 860.756 415.674 860.756 414.149C860.756 412.624 860.05 411.388 859.181 411.388C858.311 411.388 857.605 412.624 857.605 414.149C857.605 415.674 858.311 416.91 859.181 416.91Z" fill="#A0616A"/>
</g>
<g filter="url(#filter12_f_231_427)">
<path d="M879.655 467.487C878.603 468.197 877.512 468.896 876.409 469.55C876.071 469.753 875.745 469.945 875.407 470.125C874.191 470.824 872.962 471.478 871.709 472.098C871.208 472.346 870.706 472.583 870.205 472.82V460.396C870.205 460.396 872.21 461.839 875.407 464.24C875.808 464.545 876.221 464.86 876.66 465.198C877.587 465.897 878.59 466.664 879.655 467.487Z" fill="#545454"/>
</g>
<g filter="url(#filter13_f_231_427)">
<path d="M903.954 397.648C900.471 388.877 894.848 380.878 887.476 374.209C880.104 367.539 871.16 362.36 861.27 359.031C851.38 355.702 840.78 354.305 830.21 354.936C819.64 355.567 809.354 358.211 800.07 362.685C790.785 367.158 782.726 373.353 776.454 380.837C770.182 388.321 765.847 396.915 763.753 406.018C761.659 415.121 761.856 424.515 764.33 433.545C766.803 442.575 771.494 451.023 778.075 458.301C778.729 459.023 779.409 459.745 780.102 460.444C780.154 460.49 780.193 460.536 780.245 460.582C781.95 462.303 783.762 463.94 785.672 465.487C786.169 465.888 786.692 466.301 787.215 466.69C788.209 467.47 789.228 468.215 790.288 468.925C792.356 470.354 794.512 471.682 796.747 472.902L796.825 472.937C798.277 473.728 799.754 474.461 801.258 475.16L801.872 475.435C803.285 476.077 804.723 476.685 806.201 477.246C806.501 477.361 806.828 477.476 807.129 477.59C807.155 477.602 807.169 477.602 807.195 477.613C810.18 478.701 813.247 479.609 816.374 480.329C822.503 481.761 828.82 482.486 835.163 482.484C837.477 482.484 839.766 482.392 842.028 482.198C847.196 481.779 852.299 480.876 857.248 479.504C857.261 479.504 857.274 479.493 857.287 479.493C860.413 478.62 863.467 477.559 866.427 476.318C866.44 476.306 866.466 476.306 866.479 476.295C867.146 476.02 867.787 475.722 868.441 475.435L868.755 475.298C869.278 475.057 869.8 474.816 870.323 474.564C871.631 473.934 872.912 473.269 874.181 472.559C874.534 472.375 874.874 472.18 875.227 471.974C876.377 471.309 877.515 470.599 878.613 469.877C878.81 469.751 879.018 469.625 879.215 469.487C891.465 461.336 900.456 449.996 904.9 437.09C909.344 424.185 909.013 410.378 903.954 397.648ZM876.809 466.702C876.377 467 875.933 467.286 875.488 467.55C875.057 467.837 874.625 468.112 874.181 468.364C873.802 468.604 873.422 468.834 873.03 469.051C872.703 469.246 872.376 469.43 872.049 469.613C870.964 470.209 869.866 470.782 868.755 471.332C868.637 471.39 868.519 471.447 868.401 471.504C867.904 471.745 867.407 471.974 866.911 472.203C866.845 472.238 866.766 472.261 866.701 472.295L866.623 472.329C865.995 472.616 865.355 472.891 864.714 473.155C862.241 474.198 859.695 475.102 857.091 475.859C856.751 475.963 856.411 476.066 856.071 476.157C851.387 477.463 846.556 478.324 841.662 478.725C839.517 478.897 837.346 478.988 835.163 478.988C829.163 478.999 823.188 478.313 817.393 476.948C814.42 476.268 811.505 475.402 808.672 474.358C808.371 474.255 808.071 474.14 807.783 474.037C807.626 473.98 807.482 473.922 807.325 473.854C806.096 473.384 804.88 472.868 803.69 472.329L803.115 472.066C801.664 471.401 800.238 470.69 798.852 469.934C798.342 469.659 797.832 469.372 797.336 469.074C795.766 468.169 794.236 467.195 792.746 466.175C791.739 465.51 790.772 464.799 789.83 464.066C789.333 463.699 788.849 463.298 788.379 462.92C786.525 461.419 784.77 459.827 783.122 458.152C782.573 457.602 782.037 457.051 781.527 456.478C781.411 456.365 781.302 456.246 781.2 456.123C772.704 446.726 767.594 435.324 766.521 423.371C765.449 411.418 768.462 399.456 775.177 389.011C781.891 378.565 792.003 370.109 804.223 364.721C816.443 359.333 830.216 357.258 843.787 358.759C857.358 360.261 870.111 365.271 880.42 373.152C890.729 381.032 898.127 391.426 901.67 403.007C905.212 414.587 904.74 426.83 900.312 438.175C895.884 449.519 887.702 459.45 876.809 466.702Z" fill="#4CA6E0"/>
</g>
<path d="M899.784 392.722C901.587 392.147 903.225 391.232 904.582 390.042C905.939 388.851 906.983 387.413 907.639 385.83C908.296 384.246 908.549 382.555 908.381 380.877C908.213 379.198 907.629 377.572 906.669 376.113L937.144 345.111L913.119 342.363L887.863 372.224C885.181 373.804 883.252 376.194 882.44 378.94C881.629 381.687 881.993 384.599 883.462 387.126C884.932 389.652 887.405 391.617 890.413 392.649C893.421 393.68 896.756 393.706 899.784 392.722V392.722Z" fill="#FFB8B8"/>
<path d="M1071.47 399.152C1072.74 397.901 1073.68 396.425 1074.22 394.828C1074.76 393.231 1074.88 391.551 1074.59 389.908C1074.29 388.264 1073.58 386.696 1072.51 385.315C1071.44 383.933 1070.02 382.772 1068.37 381.912L1078.11 342.363L1055.44 350.033L1049.67 386.413C1048.18 388.901 1047.79 391.774 1048.6 394.488C1049.4 397.201 1051.32 399.568 1054.01 401.138C1056.7 402.708 1059.96 403.373 1063.18 403.007C1066.4 402.641 1069.35 401.269 1071.47 399.152Z" fill="#FFB8B8"/>
<path d="M962.342 608.109L945.8 608.108L937.932 554.27L962.345 554.271L962.342 608.109Z" fill="#FFB8B8"/>
<path d="M966.282 621.914L914.307 621.912V621.326C914.307 618.956 914.83 616.609 915.846 614.419C916.863 612.229 918.353 610.239 920.232 608.563C922.11 606.887 924.341 605.558 926.795 604.651C929.25 603.744 931.88 603.277 934.537 603.277H934.538L966.283 603.278L966.282 621.914Z" fill="#2F2E41"/>
<path d="M1041.09 608.109L1024.55 608.108L1016.68 554.27L1041.1 554.271L1041.09 608.109Z" fill="#FFB8B8"/>
<path d="M1045.03 621.914L992.271 621.912V621.326C992.271 618.956 992.803 616.609 993.835 614.419C994.867 612.229 996.379 610.239 998.287 608.563C1000.19 606.887 1002.46 605.558 1004.95 604.651C1007.44 603.744 1010.11 603.277 1012.81 603.277H1012.81L1045.04 603.278L1045.03 621.914Z" fill="#2F2E41"/>
<path d="M963.783 579.806L941.193 579.01C939.652 578.952 938.199 578.362 937.147 577.369C936.096 576.376 935.53 575.058 935.573 573.701L941.937 389.935L942.353 389.803C981.945 377.196 1014.7 378.149 1042.49 392.714L1042.8 392.877L1046.61 571.857C1046.62 572.542 1046.48 573.223 1046.2 573.86C1045.91 574.497 1045.48 575.077 1044.93 575.566C1044.39 576.055 1043.74 576.443 1043.02 576.709C1042.3 576.974 1041.53 577.11 1040.75 577.11H1021.7C1020.35 577.108 1019.03 576.692 1017.98 575.934C1016.94 575.175 1016.22 574.12 1015.96 572.949L990.007 456.752C989.917 456.351 989.668 455.99 989.303 455.736C988.939 455.482 988.483 455.351 988.019 455.366C987.554 455.381 987.111 455.541 986.769 455.819C986.427 456.096 986.208 456.471 986.153 456.877L969.832 575.275C969.653 576.524 968.963 577.672 967.893 578.506C966.823 579.34 965.444 579.804 964.015 579.809C963.938 579.809 963.861 579.808 963.783 579.806Z" fill="#2F2E41"/>
<path d="M985.578 229.162C1003.19 229.162 1017.47 216.646 1017.47 201.207C1017.47 185.768 1003.19 173.252 985.578 173.252C967.963 173.252 953.684 185.768 953.684 201.207C953.684 216.646 967.963 229.162 985.578 229.162Z" fill="#FFB8B8"/>
<path d="M909.995 370.305C908.888 369.921 907.94 369.249 907.279 368.38L901.112 360.271C900.447 359.392 900.105 358.354 900.132 357.299C900.16 356.243 900.556 355.22 901.267 354.369L926.126 324.718L941.7 259.05C942.596 257.022 943.938 255.17 945.649 253.598C947.36 252.027 949.407 250.767 951.672 249.891C953.938 249.015 956.377 248.54 958.852 248.493C961.326 248.446 963.787 248.828 966.093 249.617C968.4 250.407 970.506 251.587 972.293 253.092C974.08 254.597 975.512 256.397 976.506 258.389C977.501 260.38 978.04 262.525 978.091 264.699C978.142 266.874 977.705 269.036 976.805 271.062L969.445 312.855C967.213 325.539 959.814 337.08 948.624 345.329L915.899 369.461C915.269 369.925 914.536 370.267 913.746 370.465C912.956 370.664 912.128 370.714 911.315 370.612C910.863 370.556 910.42 370.453 909.995 370.305Z" fill="#BF35BC"/>
<path d="M1070.27 373.809C1069.15 374.165 1067.92 374.211 1066.76 373.942L1055.96 371.426C1054.79 371.152 1053.74 370.569 1052.96 369.758C1052.18 368.946 1051.71 367.945 1051.6 366.889L1047.94 330.064L1009.97 271.515C1009.11 269.465 1008.72 267.287 1008.82 265.106C1008.93 262.924 1009.52 260.782 1010.57 258.802C1011.62 256.821 1013.11 255.041 1014.94 253.563C1016.78 252.086 1018.93 250.939 1021.27 250.19C1023.61 249.44 1026.1 249.102 1028.59 249.195C1031.09 249.288 1033.53 249.809 1035.79 250.73C1038.06 251.652 1040.09 252.954 1041.77 254.563C1043.46 256.171 1044.77 258.055 1045.62 260.107L1071.71 295.883C1079.64 306.74 1082.78 319.746 1080.57 332.482L1074.1 369.733C1073.98 370.449 1073.68 371.134 1073.23 371.744C1072.79 372.354 1072.2 372.874 1071.51 373.271C1071.12 373.492 1070.71 373.673 1070.27 373.809Z" fill="#BF35BC"/>
<path d="M950.92 250.981C956.441 245.689 963.25 241.548 970.846 238.863C978.442 236.178 986.63 235.019 994.807 235.47C995.345 235.499 995.88 235.532 996.413 235.568H996.414C1004.16 236.104 1011.69 238.08 1018.5 241.363C1025.31 244.647 1031.23 249.163 1035.88 254.61C1040.61 260.133 1043.93 266.474 1045.63 273.209C1047.33 279.945 1047.36 286.92 1045.73 293.667C1039.5 319.455 1041.07 346.218 1050.3 371.31L1058.93 394.712C1059.2 395.462 1059.28 396.258 1059.15 397.037C1059.02 397.817 1058.68 398.56 1058.17 399.209C1057.66 399.858 1056.99 400.395 1056.2 400.78C1055.41 401.165 1054.54 401.387 1053.64 401.429L1009.56 403.501L998.276 386.469V404.031L944.7 406.549C944.593 406.555 944.487 406.557 944.381 406.557C943.568 406.556 942.764 406.409 942.02 406.124C941.275 405.839 940.606 405.422 940.055 404.899C939.504 404.377 939.082 403.76 938.817 403.089C938.552 402.417 938.448 401.704 938.514 400.996L944.569 335.358L936.974 290.777C935.744 283.655 936.359 276.381 938.773 269.494C941.187 262.606 945.338 256.279 950.92 250.981V250.981Z" fill="#BF35BC"/>
<path d="M1007.84 228.394C1004.89 229.901 993.205 230.899 992.373 227.971L992.355 227.906C991.775 225.76 992.257 223.52 992.423 221.318C992.589 219.117 992.346 216.699 990.653 215.08C987.498 212.063 981.884 213.662 977.321 212.899C974.649 212.371 972.285 210.998 970.673 209.038C969.06 207.077 968.31 204.663 968.562 202.248C968.627 201.791 968.729 201.332 968.843 200.875C969.128 199.715 969.106 198.512 968.778 197.361C968.451 196.21 967.826 195.142 966.954 194.24C966.082 193.339 964.985 192.629 963.751 192.166C962.517 191.703 961.179 191.5 959.841 191.572C955.23 191.806 950.252 193.043 946.437 190.018C943.487 187.679 942.767 181.589 944.063 178.275C946.242 172.706 960.196 169.79 966.289 168.187C973.824 166.259 981.75 165.842 989.49 166.967C997.231 168.092 1004.59 170.73 1011.03 174.69C1014.88 177.093 1018.48 180.112 1020.12 184.021C1021.76 187.93 1020.97 192.862 1017.27 195.443C1020.13 198.131 1022.15 201.44 1023.12 205.037C1024.09 208.635 1023.97 212.394 1022.79 215.94C1020.96 221.154 1012.24 226.152 1007.84 228.394Z" fill="#2F2E41"/>
<g filter="url(#filter14_d_231_427)">
<path d="M1104.52 621.834H826.773C826.427 621.834 826.095 621.725 825.851 621.531C825.606 621.337 825.469 621.074 825.469 620.799C825.469 620.524 825.606 620.261 825.851 620.067C826.095 619.873 826.427 619.764 826.773 619.764H1104.52C1104.87 619.764 1105.2 619.873 1105.44 620.067C1105.69 620.261 1105.82 620.524 1105.82 620.799C1105.82 621.074 1105.69 621.337 1105.44 621.531C1105.2 621.725 1104.87 621.834 1104.52 621.834Z" fill="#4CA6E0"/>
</g>
</g>
<defs>
<filter id="filter0_d_231_427" x="51.8262" y="107.404" width="595.023" height="348.709" filterUnits="userSpaceOnUse" color-interpolation-filters="sRGB">
<feFlood flood-opacity="0" result="BackgroundImageFix"/>
<feColorMatrix in="SourceAlpha" type="matrix" values="0 0 0 0 0 0 0 0 0 0 0 0 0 0 0 0 0 0 127 0" result="hardAlpha"/>
<feOffset dx="50" dy="41"/>
<feGaussianBlur stdDeviation="2"/>
<feComposite in2="hardAlpha" operator="out"/>
<feColorMatrix type="matrix" values="0 0 0 0 0.298039 0 0 0 0 0.65098 0 0 0 0 0.878431 0 0 0 0.4 0"/>
<feBlend mode="normal" in2="BackgroundImageFix" result="effect1_dropShadow_231_427"/>
<feBlend mode="normal" in="SourceGraphic" in2="effect1_dropShadow_231_427" result="shape"/>
</filter>
<filter id="filter1_f_231_427" x="843.367" y="422.573" width="30.8379" height="27.3271" filterUnits="userSpaceOnUse" color-interpolation-filters="sRGB">
<feFlood flood-opacity="0" result="BackgroundImageFix"/>
<feBlend mode="normal" in="SourceGraphic" in2="BackgroundImageFix" result="shape"/>
<feGaussianBlur stdDeviation="2" result="effect1_foregroundBlur_231_427"/>
</filter>
<filter id="filter2_f_231_427" x="849.668" y="421.193" width="28.4746" height="23.1855" filterUnits="userSpaceOnUse" color-interpolation-filters="sRGB">
<feFlood flood-opacity="0" result="BackgroundImageFix"/>
<feBlend mode="normal" in="SourceGraphic" in2="BackgroundImageFix" result="shape"/>
<feGaussianBlur stdDeviation="2" result="effect1_foregroundBlur_231_427"/>
</filter>
<filter id="filter3_f_231_427" x="802.418" y="375.637" width="72.5762" height="64.6006" filterUnits="userSpaceOnUse" color-interpolation-filters="sRGB">
<feFlood flood-opacity="0" result="BackgroundImageFix"/>
<feBlend mode="normal" in="SourceGraphic" in2="BackgroundImageFix" result="shape"/>
<feGaussianBlur stdDeviation="2" result="effect1_foregroundBlur_231_427"/>
</filter>
<filter id="filter4_f_231_427" x="799.266" y="375.637" width="62.3379" height="57.0078" filterUnits="userSpaceOnUse" color-interpolation-filters="sRGB">
<feFlood flood-opacity="0" result="BackgroundImageFix"/>
<feBlend mode="normal" in="SourceGraphic" in2="BackgroundImageFix" result="shape"/>
<feGaussianBlur stdDeviation="2" result="effect1_foregroundBlur_231_427"/>
</filter>
<filter id="filter5_f_231_427" x="813.441" y="394.964" width="49.7383" height="45.2734" filterUnits="userSpaceOnUse" color-interpolation-filters="sRGB">
<feFlood flood-opacity="0" result="BackgroundImageFix"/>
<feBlend mode="normal" in="SourceGraphic" in2="BackgroundImageFix" result="shape"/>
<feGaussianBlur stdDeviation="2" result="effect1_foregroundBlur_231_427"/>
</filter>
<filter id="filter6_f_231_427" x="777.215" y="432.928" width="101.715" height="52.1758" filterUnits="userSpaceOnUse" color-interpolation-filters="sRGB">
<feFlood flood-opacity="0" result="BackgroundImageFix"/>
<feBlend mode="normal" in="SourceGraphic" in2="BackgroundImageFix" result="shape"/>
<feGaussianBlur stdDeviation="2" result="effect1_foregroundBlur_231_427"/>
</filter>
<filter id="filter7_f_231_427" x="790.604" y="443.281" width="22.1758" height="36.2998" filterUnits="userSpaceOnUse" color-interpolation-filters="sRGB">
<feFlood flood-opacity="0" result="BackgroundImageFix"/>
<feBlend mode="normal" in="SourceGraphic" in2="BackgroundImageFix" result="shape"/>
<feGaussianBlur stdDeviation="2" result="effect1_foregroundBlur_231_427"/>
</filter>
<filter id="filter8_f_231_427" x="853.605" y="451.564" width="18.2383" height="30.0879" filterUnits="userSpaceOnUse" color-interpolation-filters="sRGB">
<feFlood flood-opacity="0" result="BackgroundImageFix"/>
<feBlend mode="normal" in="SourceGraphic" in2="BackgroundImageFix" result="shape"/>
<feGaussianBlur stdDeviation="2" result="effect1_foregroundBlur_231_427"/>
</filter>
<filter id="filter9_f_231_427" x="816.592" y="390.822" width="44.2266" height="25.9463" filterUnits="userSpaceOnUse" color-interpolation-filters="sRGB">
<feFlood flood-opacity="0" result="BackgroundImageFix"/>
<feBlend mode="normal" in="SourceGraphic" in2="BackgroundImageFix" result="shape"/>
<feGaussianBlur stdDeviation="2" result="effect1_foregroundBlur_231_427"/>
</filter>
<filter id="filter10_f_231_427" x="811.865" y="407.388" width="10.3633" height="13.5225" filterUnits="userSpaceOnUse" color-interpolation-filters="sRGB">
<feFlood flood-opacity="0" result="BackgroundImageFix"/>
<feBlend mode="normal" in="SourceGraphic" in2="BackgroundImageFix" result="shape"/>
<feGaussianBlur stdDeviation="2" result="effect1_foregroundBlur_231_427"/>
</filter>
<filter id="filter11_f_231_427" x="853.605" y="407.388" width="11.1504" height="13.5225" filterUnits="userSpaceOnUse" color-interpolation-filters="sRGB">
<feFlood flood-opacity="0" result="BackgroundImageFix"/>
<feBlend mode="normal" in="SourceGraphic" in2="BackgroundImageFix" result="shape"/>
<feGaussianBlur stdDeviation="2" result="effect1_foregroundBlur_231_427"/>
</filter>
<filter id="filter12_f_231_427" x="866.205" y="456.396" width="17.4512" height="20.4248" filterUnits="userSpaceOnUse" color-interpolation-filters="sRGB">
<feFlood flood-opacity="0" result="BackgroundImageFix"/>
<feBlend mode="normal" in="SourceGraphic" in2="BackgroundImageFix" result="shape"/>
<feGaussianBlur stdDeviation="2" result="effect1_foregroundBlur_231_427"/>
</filter>
<filter id="filter13_f_231_427" x="758.316" y="350.788" width="153.691" height="135.696" filterUnits="userSpaceOnUse" color-interpolation-filters="sRGB">
<feFlood flood-opacity="0" result="BackgroundImageFix"/>
<feBlend mode="normal" in="SourceGraphic" in2="BackgroundImageFix" result="shape"/>
<feGaussianBlur stdDeviation="2" result="effect1_foregroundBlur_231_427"/>
</filter>
<filter id="filter14_d_231_427" x="825.469" y="609.764" width="320.355" height="42.0703" filterUnits="userSpaceOnUse" color-interpolation-filters="sRGB">
<feFlood flood-opacity="0" result="BackgroundImageFix"/>
<feColorMatrix in="SourceAlpha" type="matrix" values="0 0 0 0 0 0 0 0 0 0 0 0 0 0 0 0 0 0 127 0" result="hardAlpha"/>
<feOffset dx="20" dy="10"/>
<feGaussianBlur stdDeviation="10"/>
<feComposite in2="hardAlpha" operator="out"/>
<feColorMatrix type="matrix" values="0 0 0 0 0.298039 0 0 0 0 0.65098 0 0 0 0 0.878431 0 0 0 0.75 0"/>
<feBlend mode="normal" in2="BackgroundImageFix" result="effect1_dropShadow_231_427"/>
<feBlend mode="normal" in="SourceGraphic" in2="effect1_dropShadow_231_427" result="shape"/>
</filter>
<clipPath id="clip0_231_427">
<rect width="1186" height="657" fill="white"/>
</clipPath>
</defs>
</svg>
