<svg width="450" height="277" viewBox="0 0 450 277" fill="none" xmlns="http://www.w3.org/2000/svg">
<g clip-path="url(#clip0_230_214)">
<path d="M168.944 87.6527C167.634 87.6527 166.353 87.3271 165.263 86.7171C164.173 86.1071 163.324 85.2401 162.823 84.2257C162.321 83.2113 162.19 82.0951 162.446 81.0182C162.701 79.9413 163.332 78.9522 164.259 78.1758C165.186 77.3994 166.366 76.8707 167.651 76.6565C168.937 76.4423 170.269 76.5522 171.479 76.9724C172.69 77.3926 173.725 78.1041 174.453 79.017C175.181 79.93 175.57 81.0033 175.57 82.1013C175.57 83.5736 174.872 84.9856 173.629 86.0267C172.386 87.0678 170.701 87.6527 168.944 87.6527Z" fill="#4CA6E0"/>
<path d="M171.254 83.2634L169.868 82.1017L171.254 80.94C171.315 80.8892 171.364 80.8289 171.397 80.7623C171.43 80.6958 171.447 80.6245 171.447 80.5524C171.447 80.4804 171.431 80.409 171.398 80.3424C171.365 80.2758 171.317 80.2153 171.256 80.1643C171.195 80.1134 171.123 80.073 171.043 80.0454C170.964 80.0179 170.879 80.0038 170.793 80.0039C170.707 80.004 170.621 80.0184 170.542 80.0461C170.463 80.0738 170.391 80.1144 170.33 80.1656L168.944 81.3272L167.557 80.1656C167.435 80.0629 167.268 80.0052 167.095 80.0052C166.922 80.0052 166.755 80.0629 166.633 80.1656C166.51 80.2683 166.441 80.4076 166.441 80.5528C166.441 80.698 166.51 80.8373 166.633 80.94L168.019 82.1017L166.633 83.2634C166.511 83.3662 166.443 83.5053 166.443 83.6502C166.443 83.7952 166.512 83.9341 166.634 84.0366C166.757 84.1391 166.922 84.1968 167.095 84.197C167.268 84.1972 167.434 84.14 167.557 84.0378L168.944 82.8762L170.33 84.0378C170.391 84.0887 170.463 84.129 170.542 84.1565C170.621 84.1841 170.706 84.1982 170.792 84.1982C170.878 84.1982 170.963 84.1841 171.042 84.1565C171.122 84.129 171.194 84.0887 171.254 84.0378C171.315 83.987 171.363 83.9266 171.396 83.8602C171.429 83.7937 171.446 83.7225 171.446 83.6506C171.446 83.5787 171.429 83.5075 171.396 83.4411C171.363 83.3746 171.315 83.3142 171.254 83.2634Z" fill="white"/>
<path d="M316.904 77.9606L332.9 82.2154L332.96 82.207C338.914 81.3714 343.854 73.2242 346.95 66.5367C347.968 64.3309 347.949 61.8833 346.896 59.6887C345.844 57.4942 343.836 55.7164 341.278 54.7148C339.386 53.9867 337.288 53.7165 335.222 53.9349C333.156 54.1533 331.204 54.8516 329.587 55.9508L321.373 61.5743L316.904 77.9606Z" fill="#6C63FF"/>
<path d="M458.981 370.6H39.6614L37.8599 368.01C32.4985 360.307 27.3221 352.144 22.4854 343.757C-20.7076 270.499 -38.9634 186.713 -55.0721 112.79L-67.2022 57.0695C-68.6712 50.3212 -67.565 43.3794 -64.0249 37.1322C-60.4847 30.8851 -54.6714 25.6174 -47.3301 22.0028C-39.9887 18.3881 -31.4532 16.5913 -22.8154 16.8425C-14.1775 17.0937 -5.83069 19.381 1.15644 23.4123C64.8816 60.1487 128.632 96.8495 192.406 133.514C216.554 147.434 244.132 163.545 270.544 180.955C273.092 171.15 275.757 161.316 278.422 151.618C280.26 144.923 284.578 138.814 290.824 134.074C297.07 129.334 304.958 126.178 313.481 125.011C322.003 123.843 330.772 124.717 338.664 127.521C346.556 130.324 353.212 134.93 357.781 140.748L406.842 203.194C442.625 248.797 474.207 293.735 467.772 342.202C467.803 342.792 467.747 343.383 467.605 343.962C466.318 351.923 463.931 359.748 460.486 367.296L458.981 370.6Z" fill="#EA4FE7"/>
<path d="M119.529 204.941C53.6201 204.941 0 160.014 0 104.79C0 49.5668 53.6201 4.63965 119.529 4.63965C138.679 4.65613 157.546 8.51934 174.547 15.9054C191.548 23.2914 206.187 33.985 217.238 47.0895L216.108 47.759C205.185 34.8059 190.714 24.2359 173.91 16.9352C157.106 9.63453 138.457 5.81592 119.529 5.79959C54.384 5.79959 1.38437 50.2068 1.38437 104.79C1.38437 159.374 54.384 203.781 119.529 203.781C137.676 203.83 155.59 200.354 171.863 193.625C188.136 186.895 202.326 177.096 213.317 164.997L214.415 165.703C203.295 177.944 188.939 187.857 172.476 194.666C156.012 201.474 137.888 204.991 119.529 204.941Z" fill="#4CA6E0"/>
<path d="M135.992 22.0954C143.274 22.0954 149.177 17.1491 149.177 11.0477C149.177 4.94622 143.274 0 135.992 0C128.71 0 122.807 4.94622 122.807 11.0477C122.807 17.1491 128.71 22.0954 135.992 22.0954Z" fill="#4CA6E0"/>
<path d="M134.195 16.7973C133.967 16.7973 133.742 16.7528 133.539 16.6675C133.335 16.5822 133.158 16.4582 133.021 16.3056L129.424 12.2869C129.309 12.1578 129.225 12.0109 129.177 11.8545C129.129 11.6982 129.118 11.5355 129.146 11.3758C129.173 11.216 129.237 11.0623 129.336 10.9235C129.434 10.7846 129.563 10.6633 129.718 10.5665C129.872 10.4697 130.047 10.3992 130.234 10.3592C130.42 10.3191 130.614 10.3103 130.805 10.3331C130.996 10.3559 131.179 10.41 131.345 10.4922C131.511 10.5744 131.655 10.6832 131.771 10.8123L134.124 13.4412L140.169 5.84469C140.386 5.57587 140.721 5.38987 141.101 5.32728C141.481 5.26469 141.875 5.33059 142.197 5.51061C142.519 5.69062 142.744 5.97013 142.821 6.28814C142.898 6.60615 142.822 6.93685 142.609 7.20806L135.415 16.25C135.285 16.4135 135.11 16.5485 134.905 16.6437C134.699 16.7388 134.47 16.7913 134.235 16.7969L134.195 16.7973Z" fill="white"/>
<path d="M152.138 30.9785H120.431C118.493 30.9785 116.922 32.2949 116.922 33.9187V34.9768C116.922 36.6006 118.493 37.917 120.431 37.917H152.138C154.076 37.917 155.647 36.6006 155.647 34.9768V33.9187C155.647 32.2949 154.076 30.9785 152.138 30.9785Z" fill="#4CA6E0"/>
<path d="M171.805 44.8555H100.763C98.825 44.8555 97.2539 46.1718 97.2539 47.7956V48.8538C97.2539 50.4776 98.825 51.7939 100.763 51.7939H171.805C173.743 51.7939 175.314 50.4776 175.314 48.8538V47.7956C175.314 46.1718 173.743 44.8555 171.805 44.8555Z" fill="#4CA6E0"/>
<path d="M171.805 58.7324H100.763C98.825 58.7324 97.2539 60.0488 97.2539 61.6726V62.7307C97.2539 64.3545 98.825 65.6709 100.763 65.6709H171.805C173.743 65.6709 175.314 64.3545 175.314 62.7307V61.6726C175.314 60.0488 173.743 58.7324 171.805 58.7324Z" fill="#4CA6E0"/>
<path d="M128.594 206.69C127.284 206.69 126.003 206.364 124.913 205.754C123.824 205.144 122.975 204.277 122.473 203.263C121.972 202.248 121.84 201.132 122.096 200.055C122.352 198.978 122.983 197.989 123.909 197.213C124.836 196.437 126.017 195.908 127.302 195.694C128.587 195.479 129.919 195.589 131.13 196.01C132.341 196.43 133.375 197.141 134.103 198.054C134.831 198.967 135.22 200.04 135.22 201.138C135.22 202.611 134.522 204.023 133.279 205.064C132.037 206.105 130.352 206.69 128.594 206.69Z" fill="#4CA6E0"/>
<path d="M130.905 202.3L129.518 201.139L130.905 199.977C131.027 199.874 131.096 199.735 131.096 199.59C131.096 199.444 131.027 199.305 130.905 199.202C130.782 199.1 130.616 199.042 130.443 199.042C130.269 199.042 130.103 199.1 129.98 199.202L128.594 200.364L127.208 199.202C127.085 199.1 126.919 199.042 126.745 199.042C126.572 199.042 126.406 199.1 126.283 199.202C126.161 199.305 126.092 199.444 126.092 199.59C126.092 199.735 126.161 199.874 126.283 199.977L127.67 201.139L126.283 202.3C126.161 202.403 126.092 202.542 126.092 202.687C126.092 202.833 126.161 202.972 126.283 203.075C126.406 203.177 126.572 203.235 126.745 203.235C126.919 203.235 127.085 203.177 127.208 203.075L128.594 201.913L129.98 203.075C130.103 203.177 130.269 203.235 130.443 203.235C130.616 203.235 130.782 203.177 130.905 203.075C131.027 202.972 131.096 202.833 131.096 202.687C131.096 202.542 131.027 202.403 130.905 202.3Z" fill="white"/>
<path d="M95.6423 141.132C102.924 141.132 108.828 136.186 108.828 130.085C108.828 123.983 102.924 119.037 95.6423 119.037C88.3603 119.037 82.457 123.983 82.457 130.085C82.457 136.186 88.3603 141.132 95.6423 141.132Z" fill="#4CA6E0"/>
<path d="M93.843 135.835C93.6153 135.835 93.3907 135.79 93.1871 135.705C92.9834 135.62 92.8063 135.496 92.6697 135.343L89.0726 131.324C88.9571 131.195 88.873 131.048 88.8252 130.892C88.7774 130.736 88.7668 130.573 88.794 130.413C88.8213 130.254 88.8858 130.1 88.984 129.961C89.0821 129.822 89.2119 129.701 89.366 129.604C89.5201 129.507 89.6954 129.437 89.882 129.397C90.0686 129.357 90.2627 129.348 90.4534 129.371C90.6441 129.393 90.8275 129.447 90.9932 129.53C91.159 129.612 91.3037 129.721 91.4193 129.85L93.7727 132.479L99.817 124.882C99.9232 124.747 100.06 124.63 100.221 124.539C100.381 124.449 100.561 124.385 100.75 124.353C100.94 124.32 101.135 124.32 101.325 124.351C101.515 124.382 101.695 124.445 101.856 124.535C102.017 124.624 102.155 124.74 102.263 124.875C102.37 125.01 102.445 125.161 102.482 125.32C102.519 125.479 102.519 125.643 102.48 125.802C102.442 125.96 102.366 126.111 102.258 126.246L95.0635 135.287C94.9333 135.451 94.7583 135.586 94.553 135.681C94.3478 135.776 94.1183 135.829 93.8838 135.834L93.843 135.835Z" fill="white"/>
<path d="M111.787 150.016H80.0794C78.1414 150.016 76.5703 151.332 76.5703 152.956V154.014C76.5703 155.638 78.1414 156.954 80.0794 156.954H111.787C113.725 156.954 115.296 155.638 115.296 154.014V152.956C115.296 151.332 113.725 150.016 111.787 150.016Z" fill="#4CA6E0"/>
<path d="M131.455 163.893H60.4133C58.4754 163.893 56.9043 165.209 56.9043 166.833V167.891C56.9043 169.515 58.4754 170.831 60.4133 170.831H131.455C133.393 170.831 134.964 169.515 134.964 167.891V166.833C134.964 165.209 133.393 163.893 131.455 163.893Z" fill="#4CA6E0"/>
<path d="M131.455 177.77H60.4133C58.4754 177.77 56.9043 179.086 56.9043 180.71V181.768C56.9043 183.392 58.4754 184.708 60.4133 184.708H131.455C133.393 184.708 134.964 183.392 134.964 181.768V180.71C134.964 179.086 133.393 177.77 131.455 177.77Z" fill="#4CA6E0"/>
<path d="M265.653 183.004C263.844 183.004 262.075 182.554 260.57 181.712C259.066 180.87 257.893 179.672 257.2 178.272C256.508 176.871 256.327 175.329 256.68 173.842C257.033 172.355 257.904 170.989 259.184 169.917C260.463 168.845 262.094 168.115 263.868 167.819C265.643 167.523 267.483 167.675 269.155 168.255C270.826 168.836 272.255 169.818 273.261 171.079C274.266 172.34 274.803 173.822 274.803 175.338C274.803 177.371 273.839 179.321 272.123 180.759C270.407 182.196 268.08 183.004 265.653 183.004Z" fill="#4CA6E0"/>
<path d="M268.846 176.943L266.931 175.338L268.846 173.734C269.015 173.592 269.11 173.4 269.11 173.2C269.11 172.999 269.015 172.807 268.846 172.665C268.676 172.523 268.447 172.443 268.207 172.443C267.968 172.443 267.738 172.523 267.569 172.665L265.655 174.269L263.74 172.665C263.571 172.523 263.341 172.443 263.102 172.443C262.862 172.443 262.633 172.523 262.464 172.665C262.294 172.807 262.199 172.999 262.199 173.2C262.199 173.4 262.294 173.592 262.464 173.734L264.378 175.338L262.464 176.943C262.294 177.084 262.199 177.277 262.199 177.477C262.199 177.678 262.294 177.87 262.464 178.012C262.633 178.154 262.862 178.234 263.102 178.234C263.341 178.234 263.571 178.154 263.74 178.012L265.655 176.408L267.569 178.012C267.738 178.154 267.968 178.234 268.207 178.234C268.447 178.234 268.676 178.154 268.845 178.012C269.015 177.87 269.11 177.678 269.11 177.477C269.11 177.277 269.015 177.084 268.845 176.943L268.846 176.943Z" fill="white"/>
<path d="M225.792 92.4755C235.847 92.4755 243.999 85.6452 243.999 77.2197C243.999 68.7941 235.847 61.9639 225.792 61.9639C215.736 61.9639 207.584 68.7941 207.584 77.2197C207.584 85.6452 215.736 92.4755 225.792 92.4755Z" fill="#4CA6E0"/>
<path d="M223.307 85.1594C222.993 85.1594 222.682 85.098 222.401 84.9802C222.12 84.8623 221.875 84.6912 221.687 84.4804L216.719 78.931C216.56 78.7527 216.444 78.5498 216.378 78.3339C216.312 78.1181 216.297 77.8934 216.335 77.6728C216.372 77.4522 216.462 77.24 216.597 77.0482C216.733 76.8565 216.912 76.6889 217.125 76.5552C217.337 76.4215 217.58 76.3243 217.837 76.269C218.095 76.2137 218.363 76.2014 218.626 76.2329C218.89 76.2645 219.143 76.3391 219.372 76.4527C219.601 76.5662 219.8 76.7164 219.96 76.8947L223.21 80.525L231.557 70.0349C231.704 69.8494 231.894 69.6901 232.115 69.566C232.336 69.4419 232.584 69.3556 232.845 69.3118C233.105 69.2681 233.374 69.2678 233.635 69.311C233.896 69.3543 234.144 69.4402 234.366 69.5638C234.587 69.6875 234.777 69.8464 234.925 70.0317C235.073 70.2169 235.176 70.4247 235.228 70.6433C235.28 70.8618 235.281 71.0869 235.229 71.3055C235.177 71.5242 235.075 71.7322 234.927 71.9176L224.992 84.4036C224.813 84.6294 224.571 84.8159 224.287 84.9473C224.004 85.0787 223.687 85.1512 223.363 85.1588C223.345 85.1591 223.326 85.1594 223.307 85.1594Z" fill="white"/>
<path d="M249.422 104.743H202.964C201.026 104.743 199.455 106.059 199.455 107.683V111.384C199.455 113.008 201.026 114.324 202.964 114.324H249.422C251.36 114.324 252.931 113.008 252.931 111.384V107.683C252.931 106.059 251.36 104.743 249.422 104.743Z" fill="#4CA6E0"/>
<path d="M276.581 123.905H175.806C173.868 123.905 172.297 125.222 172.297 126.845V130.546C172.297 132.17 173.868 133.487 175.806 133.487H276.581C278.519 133.487 280.09 132.17 280.09 130.546V126.845C280.09 125.222 278.519 123.905 276.581 123.905Z" fill="#4CA6E0"/>
<path d="M276.581 143.068H175.806C173.868 143.068 172.297 144.384 172.297 146.008V149.709C172.297 151.333 173.868 152.649 175.806 152.649H276.581C278.519 152.649 280.09 151.333 280.09 149.709V146.008C280.09 144.384 278.519 143.068 276.581 143.068Z" fill="#4CA6E0"/>
<path d="M311.952 268.895L303.123 268.895L298.922 240.358L311.954 240.359L311.952 268.895Z" fill="#FFB6B6"/>
<path d="M311.717 266.479L302.29 263.266L302.02 263.173L296.814 266.479C293.875 266.479 291.057 267.457 288.979 269.199C286.901 270.94 285.733 273.301 285.732 275.764V276.066H314.202V266.479H311.717Z" fill="#2F2E41"/>
<path d="M386.583 262.698L378.15 264.893L364.031 238.687L376.477 235.447L386.583 262.698Z" fill="#FFB6B6"/>
<path d="M385.502 260.45L375.362 259.726L375.071 259.704L371.271 264.155C368.465 264.887 366.12 266.522 364.752 268.701C363.384 270.881 363.106 273.426 363.977 275.778L364.084 276.066L391.271 268.987L387.876 259.832L385.502 260.45Z" fill="#2F2E41"/>
<path d="M351.255 122.713L354.846 131.271V135.897L354.346 140.984L359.904 157.95L364.264 195.363L386.207 250.745L369.382 254.805L326.425 164.316L312.857 255.843L297.471 255.499C297.471 255.499 294.839 250.165 295.531 247.266C296.223 244.366 296.223 247.845 296.223 244.366C296.223 240.886 293.222 242.397 295.415 239.612C297.607 236.826 297.334 234.387 297.471 232.707C297.607 231.026 296.223 163.17 296.223 160.85C296.223 158.53 295.743 159.038 295.983 156.754C296.223 154.47 299.265 155.409 298.436 151.46C297.607 147.511 297.334 148.201 297.471 145.246C297.607 142.291 299.515 124.965 299.515 124.965L351.255 122.713Z" fill="#2F2E41"/>
<path d="M293.668 125.497L324.514 100.573L333.063 80.2903L320.453 75.6958C313.975 80.8946 306.974 97.0874 306.974 97.0874L285.748 119.714C285.582 119.761 285.417 119.812 285.254 119.872C284.298 120.225 283.467 120.779 282.841 121.48C282.215 122.181 281.816 123.005 281.681 123.874C281.547 124.742 281.682 125.624 282.074 126.436C282.465 127.248 283.1 127.961 283.917 128.507C284.733 129.053 285.704 129.413 286.736 129.553C287.767 129.693 288.824 129.607 289.805 129.304C290.785 129.002 291.656 128.492 292.333 127.825C293.01 127.158 293.47 126.356 293.668 125.497Z" fill="#FFB8B8"/>
<path d="M353.972 133.707L354.065 133.603C359.056 128.057 352.23 114.323 351.198 112.331L355.839 111.18L355.03 103.777L354.64 100.476L358.248 97.6049L358.26 97.5316L360.742 82.736L363.988 72.9435C365.212 69.2415 365.238 65.3334 364.063 61.6202C362.889 57.9071 360.556 54.5227 357.304 51.8146L350.667 46.2934L342.716 35.8651L329.384 35.5767L324.59 42.7124C320.131 43.4747 316.134 45.5234 313.293 48.5016C310.452 51.4797 308.948 55.1985 309.043 59.0102L309.494 78.0069L304.71 101.544L304.576 105.819L299.881 109.971L300.749 114.168L297.237 115.34L295.518 121.304C294.862 121.992 290.528 126.582 290.488 127.861C290.483 128.053 290.646 128.243 291.003 128.457C293.808 130.138 309.488 133.782 316.545 131.592C324.062 129.26 353.522 133.639 353.819 133.684L353.972 133.707Z" fill="#BF35BC"/>
<path d="M321.29 73.4865L314.479 62.1104C304.595 62.6761 284.976 72.2524 284.976 72.2524L247.856 78.8466C246.757 78.4925 245.565 78.3873 244.402 78.5416C243.238 78.696 242.143 79.1044 241.228 79.7259C240.313 80.3473 239.609 81.1598 239.188 82.0816C238.766 83.0034 238.642 84.0019 238.828 84.9766C239.014 85.9514 239.502 86.868 240.245 87.6341C240.988 88.4003 241.958 88.989 243.059 89.3409C244.16 89.6929 245.352 89.7957 246.515 89.639C247.678 89.4823 248.771 89.0717 249.685 88.4484L296.903 85.6125L321.29 73.4865Z" fill="#FFB8B8"/>
<path d="M318.543 75.3541L336.329 64.2795L339.462 54.8198C340.069 52.9609 340.043 50.9967 339.388 49.1493C338.733 47.3019 337.474 45.6449 335.753 44.3656C333.407 42.6445 330.369 41.7341 327.252 41.8184C324.136 41.9026 321.174 42.9753 318.965 44.8194C312.272 50.417 304.638 58.2261 306.278 63.6411L306.294 63.696L318.543 75.3541Z" fill="#BF35BC"/>
<path d="M336.489 32.9909C345.224 32.9909 352.305 27.058 352.305 19.7393C352.305 12.4207 345.224 6.48779 336.489 6.48779C327.755 6.48779 320.674 12.4207 320.674 19.7393C320.674 27.058 327.755 32.9909 336.489 32.9909Z" fill="#FFB8B8"/>
<path d="M346.898 33.5983C344.253 32.5572 341.163 33.1899 338.242 33.2862C335.322 33.3824 331.784 32.46 331.164 30.0668C330.706 28.2973 332.083 26.3578 331.215 24.6996C330.269 22.8912 327.428 22.6338 325.151 22.1275C322.295 21.4362 319.777 20.0005 317.962 18.0288C316.147 16.0571 315.129 13.6519 315.055 11.1625C314.897 12.1505 316.915 12.475 317.578 11.6471C318.241 10.8192 317.784 9.67325 317.053 8.88653C316.323 8.09981 315.336 7.47153 314.785 6.588C314.234 5.70447 314.341 4.39232 315.417 3.96712C315.969 4.89992 316.75 5.72415 317.709 6.38544C318.669 7.04674 319.785 7.53007 320.984 7.80355C320.494 6.55766 321.186 5.15696 322.3 4.23544C323.484 3.37205 324.847 2.69922 326.322 2.25079C329.968 0.926648 334.225 -0.391023 337.755 1.13673C338.667 1.53866 339.458 2.10793 340.07 2.80202C340.682 3.49611 341.099 4.29709 341.289 5.14512C347.82 5.6078 354.526 11.5352 354.154 17.0177C353.754 22.9199 353.462 23.3974 347.598 33.3294" fill="#2F2E41"/>
<path d="M449.181 276.822L230.894 277C230.676 276.999 230.468 276.926 230.314 276.796C230.161 276.667 230.074 276.492 230.074 276.309C230.074 276.127 230.161 275.952 230.314 275.822C230.468 275.693 230.676 275.62 230.894 275.619L449.181 275.44C449.398 275.441 449.607 275.515 449.761 275.644C449.914 275.773 450.001 275.948 450.001 276.131C450.001 276.314 449.914 276.489 449.761 276.618C449.607 276.747 449.398 276.821 449.181 276.822Z" fill="#4CA6E0"/>
</g>
<defs>
<clipPath id="clip0_230_214">
<rect width="450" height="277" fill="white"/>
</clipPath>
</defs>
</svg>
